<svg xmlns="http://www.w3.org/2000/svg" viewBox="157 44.6 289 81">

  
  <path fill="#5C6B3F" d="m176.3 72c-8.8 0-16.8 7.2-16.8 17.3v30.7c0 1.1 0.6 1.9 1.7 1.9s1.8-0.8 1.8-1.9v-19.8l0.2 0.2c3.2 3.6 6.9 6.4 13.1 6.4 9.3 0 16.8-6.9 16.8-16.8 0-10-7.3-18-16.8-18zm0 31.5c-7.3 0-13-5.7-13-13.5 0-7.3 5.8-14 13-14 7.3 0 13 5.2 13 13.3 0 7.3-5.7 14.2-13 14.2z"></path>
  <path fill="#5C6B3F" d="m216.8 72c-8.8 0-16.4 7-16.4 17.2 0.2 9 6.7 16.9 16.2 17.1 5.3 0 10.4-1.7 14-6.4 0.4-0.6 0.9-1.3 0.1-2.4-0.9-1.1-2.3-1-3 0-3 3.6-6.3 5.3-11.1 5.6-6.2 0-11.7-4.9-12.7-12.1h2.7c1.2-0.2 3.2-0.3 4.7-0.3h19.8c1.8 0 2.4-0.2 2.2-2.1-0.6-8.6-6.3-16.6-16.5-16.6zm-13.1 15c0.9-6 5.9-11.1 12.8-11.1 6.5 0 12.2 4.4 13 11l-25.8 0.1z"></path>
  <path fill="#5C6B3F" d="m276.5 103c-2.6 0.3-3.4-1.5-3.4-4.5v-9.2c0-9.3-7.2-17.2-16.6-17.2-9.3 0-16.9 7.3-16.9 17.2 0.4 12 9.2 17 17.2 17 4.5 0 9.8-1.8 12.4-6.2h0.2l0.2 0.7c0.8 3.4 2.7 5.5 6.5 5.4 1.8 0.1 2.5-0.7 2.5-1.9 0.1-1.1-1-1.7-2.1-1.3zm-19.9 0c-7.5 0-13.1-5.7-13.1-13.6 0-6.6 5.8-13.5 13.1-13.5s12.7 5.4 12.7 13.4c0 7.3-5 13.7-12.7 13.7z"></path>
  <path fill="#5C6B3F" d="m299.3 72.3c-1.5-0.2-4-0.3-5.7-0.1-5.7 0.4-11.6 5.1-11.6 13.5v18.4c0 1.5 3.6 1.9 3.6-0.5v-17.9c0-5.1 3.4-9.8 9.9-9.7 1.6 0 1.9 0.1 3.5 0.3 0.9 0.1 1.9-0.9 2-1.8 0-1-0.9-2.1-1.7-2.2z"></path>
  <path fill="#5C6B3F" d="m323.3 102.5c-1.2 0.5-2.9 0.7-4.3 0.6-4.1 0-8-2.4-9.7-7.9 9.8-5.6 14.7-19.9 14.6-34.4-0.1-5.7-2-13.4-9.9-13.4-4.5 0-9.4 3.1-9.5 12.2l-0.1 30c0 6.7 5.6 16.4 16.9 16.5 1.1-0.1 2.4-0.3 3.1-0.5 1.2-0.4 1.9-1.5 1.1-2.8-0.3-0.4-0.8-0.7-2.2-0.3zm-15.1-41.5c0-5.2 1.7-9.6 6-9.5 4.2 0 5.8 3.4 5.8 9.1 0 12.9-4.4 25-11.6 30.6-0.1-0.7-0.2-1.2-0.1-2.2v-28h-0.1z"></path>
  <path fill="#5C6B3F" d="m343.3 72c-8.9 0-16.4 7.2-16.7 16.8 0 10 7 17.4 16.3 17.4s16.4-7 16.6-16.6c0.5-9.2-7.4-17.6-16.2-17.6zm-0.3 31c-7.2 0-12.7-6.3-12.8-13.7 0-6.5 5.1-13.4 12.7-13.4 8.4 0 13.2 6.6 13.2 13.4 0 7.2-5.7 13.7-13.1 13.7z"></path>
  <path fill="#5C6B3F" d="m378.4 72c-9.2 0-16.7 6.8-17.1 16.8 0.2 9.4 6.2 17.5 16.5 17.4 9.1 0 16.3-6.2 16.7-16.6 0-8.9-7.1-17.6-16.1-17.6zm-0.5 31c-7.9 0-12.9-6.4-13.1-13.6 0-6.6 5.4-13.5 13.1-13.5 7.1 0 13.1 5.9 13.1 13.4 0 7.3-5.7 13.7-13.1 13.7z"></path>
  <path fill="#5C6B3F" d="m432.2 72c-3.7 0-7.6 1.5-9.7 5.3-2.2-3.5-6.1-5.3-9.5-5.3-6.6 0-11 4.5-11.3 11.5l0.1 20.9c0 2.1 3.3 2.4 3.6 0.1l-0.1-20.2c0-4.9 3.4-8.4 7.7-8.4 4.5 0 8 3.2 8 8.4l0.1 20.2c0 2.1 3.3 2.4 3.3 0v-20.2c0-4.8 3.5-8.4 7.7-8.4 4.5 0 7.8 3.2 7.8 8.1v20.4c0 2.1 3.1 2.3 3.1 0v-20.3c0.4-7.4-5.1-12.1-10.8-12.1z"></path>
</svg>